<?xml version="1.0" encoding="UTF-8"?>
<svg width="516px" height="587px" viewBox="0 0 516 587" version="1.1" xmlns="http://www.w3.org/2000/svg" xmlns:xlink="http://www.w3.org/1999/xlink">
    <!-- Generator: Sketch 61.1 (89650) - https://sketch.com -->
    <title>submit-a-complaint-desktop</title>
    <desc>Created with Sketch.</desc>
    <defs>
        <polygon id="path-1" points="60 0 321 0 321 587 -1.45519152e-11 587"></polygon>
    </defs>
    <g id="Template" stroke="none" stroke-width="1" fill="none" fill-rule="evenodd">
        <g id="submit-a-complaint-desktop" transform="translate(0.320307, 0.000000)">
            <g id="BG" transform="translate(7.679693, 0.000000)">
                <mask id="mask-2" fill="white">
                    <use xlink:href="#path-1"></use>
                </mask>
                <use id="Mask" fill="#F7FCFF" xlink:href="#path-1"></use>
                <g opacity="0.5" mask="url(#mask-2)">
                    <g transform="translate(-257.000000, 123.000000)">
                        <polygon id="Fill-11" stroke="none" fill="#D6EEFF" fill-rule="evenodd" points="484.347619 465.032191 541.980034 465.032191 541.980034 295.646386 484.347619 295.646386"></polygon>
                        <polygon id="Fill-13" stroke="none" fill="#AAD5FF" fill-rule="evenodd" points="541.980034 465.032191 678.069199 465.032191 678.069199 295.646386 541.980034 295.646386"></polygon>
                        <path d="M528.575102,315.103188 L497.752551,315.103188 C494.504357,315.103188 491.871704,312.469281 491.871704,309.220137 C491.871704,305.970394 494.504357,303.336486 497.752551,303.336486 L528.575102,303.336486 C531.823296,303.336486 534.455948,305.970394 534.455948,309.220137 C534.455948,312.469281 531.823296,315.103188 528.575102,315.103188" id="Fill-14" stroke="none" fill="#AAD5FF" fill-rule="evenodd"></path>
                        <path d="M528.575102,331.86821 L497.752551,331.86821 C494.504357,331.86821 491.871704,329.234302 491.871704,325.98456 C491.871704,322.735415 494.504357,320.101508 497.752551,320.101508 L528.575102,320.101508 C531.823296,320.101508 534.455948,322.735415 534.455948,325.98456 C534.455948,329.234302 531.823296,331.86821 528.575102,331.86821" id="Fill-15" stroke="none" fill="#AAD5FF" fill-rule="evenodd"></path>
                        <path d="M527.802833,413.529395 L498.524819,413.529395 C494.850711,413.529395 491.871704,410.549567 491.871704,406.873707 L491.871704,344.342793 C491.871704,340.666933 494.850711,337.686506 498.524819,337.686506 L527.802833,337.686506 C531.47754,337.686506 534.455948,340.666933 534.455948,344.342793 L534.455948,406.873707 C534.455948,410.549567 531.47754,413.529395 527.802833,413.529395" id="Fill-16" stroke="none" fill="#AAD5FF" fill-rule="evenodd"></path>
                        <polygon id="Fill-17" stroke="none" fill="#E8F6FF" fill-rule="evenodd" points="216.886648 274.160979 561.787438 274.160979 561.787438 226.958317 216.886648 226.958317"></polygon>
                        <polygon id="Fill-18" stroke="none" fill="#C3E4FF" fill-rule="evenodd" points="561.787438 274.160979 712.762664 274.160979 712.762664 226.958317 561.787438 226.958317"></polygon>
                        <polygon id="Fill-19" stroke="none" fill="#C3E4FF" fill-rule="evenodd" points="393.404165 266.998977 554.140722 266.998977 554.140722 234.119721 393.404165 234.119721"></polygon>
                        <polygon id="Fill-20" stroke="none" fill="#C3E4FF" fill-rule="evenodd" points="225.020892 266.998977 385.758047 266.998977 385.758047 234.119721 225.020892 234.119721"></polygon>
                        <path d="M325.915484,241.960159 L284.863814,241.960159 C280.535879,241.960159 277.027471,238.450078 277.027471,234.12008 L333.751827,234.12008 C333.751827,238.450078 330.243419,241.960159 325.915484,241.960159" id="Fill-21" stroke="none" fill="#AAD5FF" fill-rule="evenodd"></path>
                        <path d="M494.298698,241.960159 L453.247027,241.960159 C448.919093,241.960159 445.410684,238.450078 445.410684,234.12008 L502.135041,234.12008 C502.135041,238.450078 498.626632,241.960159 494.298698,241.960159" id="Fill-22" stroke="none" fill="#AAD5FF" fill-rule="evenodd"></path>
                        <polygon id="Fill-25" stroke="none" fill="#D6EEFF" fill-rule="evenodd" points="360.297111 468.717626 367.861874 468.717626 367.861874 274.160979 360.297111 274.160979"></polygon>
                        <polygon id="Fill-26" stroke="none" fill="#C3E4FF" fill-rule="evenodd" points="367.862472 468.717626 375.427235 468.717626 375.427235 274.160979 367.862472 274.160979"></polygon>
                        <polygon id="Fill-27" stroke="none" fill="#E8F6FF" fill-rule="evenodd" points="554.222675 468.717626 561.787438 468.717626 561.787438 274.160979 554.222675 274.160979"></polygon>
                        <polygon id="Fill-28" stroke="none" fill="#C3E4FF" fill-rule="evenodd" points="561.788036 468.717626 569.352799 468.717626 569.352799 274.160979 561.788036 274.160979"></polygon>
                        <polygon id="Fill-29" stroke="none" fill="#E8F6FF" fill-rule="evenodd" points="697.633138 468.717626 705.197901 468.717626 705.197901 274.160979 697.633138 274.160979"></polygon>
                        <polygon id="Fill-30" stroke="none" fill="#C3E4FF" fill-rule="evenodd" points="705.197901 468.717626 712.762664 468.717626 712.762664 274.160979 705.197901 274.160979"></polygon>
                        <path d="M641.830658,226.959574 L592.047148,226.959574 C592.047148,221.205794 596.709473,216.541246 602.460511,216.541246 L631.417295,216.541246 C637.168333,216.541246 641.830658,221.205794 641.830658,226.959574" id="Fill-31" stroke="none" fill="#D6EEFF" fill-rule="evenodd"></path>
                        <line x1="626.537586" y1="220.44764" x2="682.502834" y2="164.713656" id="Stroke-32" stroke="#C3E4FF" stroke-width="10.1725806" fill="none"></line>
                        <line x1="629.466045" y1="102.279217" x2="682.502535" y2="164.713776" id="Stroke-33" stroke="#C3E4FF" stroke-width="10.1725806" fill="none"></line>
                        <line x1="629.466045" y1="102.279217" x2="600.46679" y2="102.279217" id="Stroke-34" stroke="#C3E4FF" stroke-width="10.1725806" fill="none"></line>
                        <path d="M573.826394,126.10414 C573.826394,111.383942 585.753188,99.4508634 600.46697,99.4508634 C615.180152,99.4508634 627.106947,111.383942 627.106947,126.10414" id="Fill-35" stroke="none" fill="#D6EEFF" fill-rule="evenodd"></path>
                        <path d="M518.775007,428.380899 C518.775007,431.48162 516.262591,433.995233 513.163946,433.995233 C510.064702,433.995233 507.552287,431.48162 507.552287,428.380899 C507.552287,425.280776 510.064702,422.767163 513.163946,422.767163 C516.262591,422.767163 518.775007,425.280776 518.775007,428.380899" id="Fill-36" stroke="none" fill="#AAD5FF" fill-rule="evenodd"></path>
                        <path d="M370.749955,58.7798851 C370.749955,61.993719 368.145418,64.5988994 364.933713,64.5988994 C361.721411,64.5988994 359.117472,61.993719 359.117472,58.7798851 C359.117472,55.5660512 361.721411,52.9608707 364.933713,52.9608707 C368.145418,52.9608707 370.749955,55.5660512 370.749955,58.7798851" id="Fill-37" stroke="none" fill="#AAD5FF" fill-rule="evenodd"></path>
                        <path d="M354.887641,112.981104 C354.887641,116.194938 352.283702,118.800118 349.0714,118.800118 C345.859695,118.800118 343.255158,116.194938 343.255158,112.981104 C343.255158,109.76727 345.859695,107.16209 349.0714,107.16209 C352.283702,107.16209 354.887641,109.76727 354.887641,112.981104" id="Fill-38" stroke="none" fill="#AAD5FF" fill-rule="evenodd"></path>
                        <path d="M499.721567,170.763324 C499.721567,173.977158 497.117628,176.582339 493.905325,176.582339 C490.693023,176.582339 488.089084,173.977158 488.089084,170.763324 C488.089084,167.54949 490.693023,164.94431 493.905325,164.94431 C497.117628,164.94431 499.721567,167.54949 499.721567,170.763324" id="Fill-39" stroke="none" fill="#AAD5FF" fill-rule="evenodd"></path>
                        <path d="M365.462337,76.8467785 C365.462337,80.0606124 362.858398,82.6657929 359.646096,82.6657929 C356.434392,82.6657929 353.830453,80.0606124 353.830453,76.8467785 C353.830453,73.6329446 356.434392,71.0277642 359.646096,71.0277642 C362.858398,71.0277642 365.462337,73.6329446 365.462337,76.8467785" id="Fill-40" stroke="none" fill="#AAD5FF" fill-rule="evenodd"></path>
                        <path d="M392.794067,58.7798851 C392.794067,61.993719 390.190128,64.5988994 386.977825,64.5988994 C383.766121,64.5988994 381.162182,61.993719 381.162182,58.7798851 C381.162182,55.5660512 383.766121,52.9608707 386.977825,52.9608707 C390.190128,52.9608707 392.794067,55.5660512 392.794067,58.7798851" id="Fill-41" stroke="none" fill="#AAD5FF" fill-rule="evenodd"></path>
                        <path d="M387.506748,76.8467785 C387.506748,80.0606124 384.902809,82.6657929 381.690507,82.6657929 C378.478802,82.6657929 375.874863,80.0606124 375.874863,76.8467785 C375.874863,73.6329446 378.478802,71.0277642 381.690507,71.0277642 C384.902809,71.0277642 387.506748,73.6329446 387.506748,76.8467785" id="Fill-42" stroke="none" fill="#AAD5FF" fill-rule="evenodd"></path>
                        <path d="M360.174959,94.9139713 C360.174959,98.1278052 357.57102,100.732986 354.358718,100.732986 C351.147014,100.732986 348.543074,98.1278052 348.543074,94.9139713 C348.543074,91.7001374 351.147014,89.0949569 354.358718,89.0949569 C357.57102,89.0949569 360.174959,91.7001374 360.174959,94.9139713" id="Fill-43" stroke="none" fill="#AAD5FF" fill-rule="evenodd"></path>
                        <polygon id="Fill-44" stroke="none" fill="#C3E4FF" fill-rule="evenodd" points="224.452009 426.208239 364.079492 426.208239 364.079492 418.63987 224.452009 418.63987"></polygon>
                        <polygon id="Fill-45" stroke="none" fill="#C3E4FF" fill-rule="evenodd" points="565.914379 426.208239 655.333634 426.208239 655.333634 418.63987 565.914379 418.63987"></polygon>
                        <polygon id="Fill-50" stroke="none" fill="#AAD5FF" fill-rule="evenodd" points="660.621072 465.032191 923.933567 465.032191 923.933567 444.631826 660.621072 444.631826"></polygon>
                        <polygon id="Fill-51" stroke="none" fill="#E8F6FF" fill-rule="evenodd" points="655.333634 444.631826 821.438984 444.631826 821.438984 264.069421 655.333634 264.069421"></polygon>
                        <polygon id="Fill-52" stroke="none" fill="#E8F6FF" fill-rule="evenodd" points="660.621072 465.032191 674.286817 465.032191 674.286817 284.469187 660.621072 284.469187"></polygon>
                        <polygon id="Fill-55" stroke="none" fill="#C3E4FF" fill-rule="evenodd" points="660.621072 451.575982 674.286817 451.575982 674.286817 444.631228 660.621072 444.631228"></polygon>
                        <polygon id="Fill-57" stroke="none" fill="#C3E4FF" fill-rule="evenodd" points="663.841151 307.039637 812.931467 307.039637 812.931467 274.160979 663.841151 274.160979"></polygon>
                        <polygon id="Fill-58" stroke="none" fill="#C3E4FF" fill-rule="evenodd" points="663.841151 348.92481 812.931467 348.92481 812.931467 316.045554 663.841151 316.045554"></polygon>
                        <polygon id="Fill-59" stroke="none" fill="#C3E4FF" fill-rule="evenodd" points="663.841151 390.809385 812.931467 390.809385 812.931467 357.930128 663.841151 357.930128"></polygon>
                        <polygon id="Fill-60" stroke="none" fill="#C3E4FF" fill-rule="evenodd" points="663.841151 432.69396 812.931467 432.69396 812.931467 399.815302 663.841151 399.815302"></polygon>
                        <path d="M758.912563,282.000699 L717.860295,282.000699 C713.532958,282.000699 710.023951,278.490618 710.023951,274.16062 L766.748906,274.16062 C766.748906,278.490618 763.2399,282.000699 758.912563,282.000699" id="Fill-61" stroke="none" fill="#AAD5FF" fill-rule="evenodd"></path>
                        <path d="M758.912563,323.885453 L717.860295,323.885453 C713.532958,323.885453 710.023951,320.375372 710.023951,316.045374 L766.748906,316.045374 C766.748906,320.375372 763.2399,323.885453 758.912563,323.885453" id="Fill-62" stroke="none" fill="#AAD5FF" fill-rule="evenodd"></path>
                        <path d="M758.912563,365.770267 L717.860295,365.770267 C713.532958,365.770267 710.023951,362.260785 710.023951,357.930188 L766.748906,357.930188 C766.748906,362.260785 763.2399,365.770267 758.912563,365.770267" id="Fill-63" stroke="none" fill="#AAD5FF" fill-rule="evenodd"></path>
                        <path d="M758.912563,407.65562 L717.860295,407.65562 C713.532958,407.65562 710.023951,404.145539 710.023951,399.815541 L766.748906,399.815541 C766.748906,404.145539 763.2399,407.65562 758.912563,407.65562" id="Fill-64" stroke="none" fill="#AAD5FF" fill-rule="evenodd"></path>
                        <polygon id="Fill-66" stroke="none" fill="#C3E4FF" fill-rule="evenodd" points="788.666919 264.147104 754.191795 264.147104 757.831806 236.971953 785.027506 236.971953"></polygon>
                        <path d="M276.782091,320.89192 L276.782091,321.885395 C276.782091,330.174334 270.353897,336.888673 262.432012,336.888673 L150.029541,336.888673 C132.691482,336.888673 119.348762,320.245562 121.741538,301.596947 L134.431629,197.688968 C135.530511,189.082836 142.302069,182.679107 150.304112,182.679107 L183.618141,182.679107 C191.614202,182.679107 198.38576,189.082836 199.490624,197.688968 L212.180714,301.596947 C212.277622,302.339061 212.347012,303.081175 212.387091,303.817305 L212.455286,303.805335 C212.455286,303.805335 214.802599,320.89192 236.622328,320.89192 L276.782091,320.89192 Z" id="Fill-67" stroke="none" fill="#D6EEFF" fill-rule="evenodd"></path>
                        <path d="M244.644949,455.858939 L149.855107,455.858939 C146.224069,455.858939 143.253437,452.886891 143.253437,449.25472 C143.253437,445.621951 146.224069,442.649902 149.855107,442.649902 L244.644949,442.649902 C248.275389,442.649902 251.24662,445.621951 251.24662,449.25472 C251.24662,452.886891 248.275389,455.858939 244.644949,455.858939" id="Fill-69" stroke="none" fill="#C3E4FF" fill-rule="evenodd"></path>
                        <path d="M257.198831,453.934888 C257.198831,459.234422 252.904395,463.530905 247.606788,463.530905 C242.309779,463.530905 238.015343,459.234422 238.015343,453.934888 C238.015343,448.635354 242.309779,444.338272 247.606788,444.338272 C252.904395,444.338272 257.198831,448.635354 257.198831,453.934888" id="Fill-74" stroke="none" fill="#AAD5FF" fill-rule="evenodd"></path>
                        <polygon id="Fill-1" stroke="none" fill="#AAD5FF" fill-rule="evenodd" points="480.964352 80.7567636 441.356722 226.959873 402.076305 226.959873 441.683935 80.7567636"></polygon>
                        <polygon id="Fill-2" stroke="none" fill="#C3E4FF" fill-rule="evenodd" points="474.926001 80.7567636 435.318371 226.959873 396.038552 226.959873 435.646182 80.7567636"></polygon>
                        <polygon id="Fill-3" stroke="none" fill="#C3E4FF" fill-rule="evenodd" points="354.117765 226.958317 431.550406 226.958317 431.550406 222.672008 354.117765 222.672008"></polygon>
                        <polygon id="Fill-4" stroke="none" fill="#AAD5FF" fill-rule="evenodd" points="410.365959 226.958317 437.587381 226.958317 437.587381 222.672008 410.365959 222.672008"></polygon>
                        <path d="M351.667084,38.2694005 L553.732275,38.2694005 C555.732637,38.2694005 557.178472,40.2772986 556.631124,42.2971663 L516.046045,192.109705 C515.678156,193.470048 514.49433,194.407865 513.147196,194.407865 L311.082005,194.407865 C309.081045,194.407865 307.63521,192.399967 308.182558,190.3801 L348.767637,40.5675611 C349.136124,39.2072176 350.31995,38.2694005 351.667084,38.2694005" id="Fill-5" stroke="none" fill="#AAD5FF" fill-rule="evenodd"></path>
                        <path d="M348.5347,38.2694005 L547.322984,38.2694005 C549.798312,38.2694005 551.586314,40.7530897 550.909756,43.2517408 L511.220174,189.757681 C510.474824,192.509489 508.079056,194.407865 505.352488,194.407865 L309.703526,194.407865 C305.65435,194.407865 302.729181,190.344191 303.83584,186.257176 L342.667014,42.9201833 C343.412363,40.1677769 345.808131,38.2694005 348.5347,38.2694005" id="Fill-7" stroke="none" fill="#E8F6FF" fill-rule="evenodd"></path>
                        <polygon id="Fill-9" stroke="none" fill="#C3E4FF" fill-rule="evenodd" points="542.45153 45.2828001 505.05363 183.338811 312.909488 183.338811 350.312772 45.2828001"></polygon>
                        <polygon id="Clip-12" stroke="none" fill="none" points="0 554.191843 1059.63211 554.191843 1059.63211 0.40876137 0 0.40876137"></polygon>
                    </g>
                </g>
            </g>
            <g id="Man" transform="translate(279.446420, 329.500000) scale(-1, 1) translate(-279.446420, -329.500000) translate(43.446420, 72.000000)">
                <path d="M455.204796,149.157502 C455.204796,149.157502 453.544825,162.123855 457.338545,164.789076 C461.65153,167.818944 471.585984,160.583028 471.585984,160.583028 C471.585984,160.583028 470.852002,153.753671 469.384039,140.094957 L455.204796,149.157502 Z" id="Fill-66" fill="#F9D0B5"></path>
                <path d="M302.779212,483.332879 L295.571075,496.162052 C295.571075,496.162052 330.182731,502.34917 345.255437,514.674415 L266.599961,514.674415 L289.085851,475.524791 L302.779212,483.332879 Z" id="Fill-68" fill="#0B096F"></path>
                <polygon id="Fill-70" fill="#E0B99F" points="287.693841 477.948266 278.850226 493.346073 295.571005 496.161772 302.028237 484.546226"></polygon>
                <path d="M65.9560671,514.695762 L24.4693872,514.695762 L0.263341953,485.738786 L32.7405499,444.624543 L43.5541557,460.928021 L29.1924667,483.522902 L43.235738,505.339494 C43.235738,505.339494 49.4844233,506.875775 55.2082443,509.251937 C60.4582877,511.430727 65.9560671,514.695762 65.9560671,514.695762" id="Fill-72" fill="#0B096F"></path>
                <polygon id="Fill-74" fill="#E0B99F" points="32.4648212 444.679065 13.8531304 468.680746 29.1959658 483.522832 39.9472877 466.675532"></polygon>
                <path d="M449.851599,145.167581 L459.456617,144.874323 L459.456617,171.78059 L449.852999,171.28996 C449.852999,174.501102 446.124362,178.421244 442.350937,178.09789 L352.739093,166.620225 L347.693397,179.963824 L302.030196,141.136155 L287.740588,111.158026 L307.957664,110.432229 C316.237225,110.134771 324.519585,110.924259 332.62769,112.783894 L444.398608,138.067792 C447.917299,138.874777 449.959371,141.548396 449.851599,145.167581" id="Fill-76" fill="#285FD7"></path>
                <polygon id="Fill-78" fill="#0D0D11" points="269.77595 236.78614 144.46633 377.984026 49.1579577 485.383727 15.6436177 458.921197 151.996384 273.117964 173.368862 243.995813 181.367795 224.069651"></polygon>
                <path d="M347.693747,176.924157 L313.396309,229.870215 C307.689984,238.915027 301.445497,241.176404 290.941911,239.830496 L179.233276,223.761485 C170.555519,222.508664 166.741504,212.115144 172.550003,205.54308 L250.649823,122.667886 C255.212644,117.824576 261.511016,114.982981 268.166296,114.766012 L287.740239,114.129102 L302.030546,141.488205 L347.693747,176.924157 Z" id="Fill-80" fill="#49A2FF"></path>
                <path d="M353.991069,31.8719198 C353.991069,31.8719198 372.698635,58.8544762 345.260825,64.4515789" id="Fill-82" fill="#0B096F"></path>
                <path d="M300.305912,128.512473 L317.68942,102.558071 C317.68942,102.558071 346.71442,107.805223 352.974302,105.340874 C352.974302,105.340874 360.386787,78.0545611 358.152264,57.9247286 L336.997431,34.3884814 L299.008447,33.2238473 L291.164174,66.9037496 C289.799526,60.8769081 272.60427,51.7040148 266.928736,64.3106189 C259.610727,80.5651035 289.808624,92.4970038 289.808624,92.4970038 L270.267573,118.229538 L300.305912,128.512473 Z" id="Fill-84" fill="#F9D0B5"></path>
                <path d="M273.108629,58.4889882 C273.108629,58.4889882 256.943506,47.1785994 280.572901,27.3420251 C304.201595,7.50475095 322.008494,20.940737 322.008494,20.940737 C322.008494,20.940737 329.716302,-0.981540179 344.544071,0.633129811 C365.668812,2.93440199 365.518351,35.9326014 365.518351,35.9326014 C365.518351,35.9326014 372.650908,18.7234528 378.442611,21.895401 C384.234315,25.0680491 383.612175,84.6372634 302.527627,47.1009105 C302.527627,47.1009105 310.774297,65.6132734 291.163964,66.9031896 C291.163964,66.9031896 285.625595,56.4221827 273.108629,58.4889882" id="Fill-86" fill="#000000"></path>
                <polyline id="Stroke-88" stroke="#101010" stroke-width="6.3" points="292.060152 7.48410389 293.168666 22.4962654 287.374163 24.5602714 278.262518 13.1036034"></polyline>
                <polygon id="Fill-90" fill="#24272D" points="344.3139 74.7643998 348.430936 89.2145414 341.646889 88.5475364"></polygon>
                <path d="M338.584131,94.9835396 C338.584131,94.9835396 332.907897,94.7392744 331.895959,90.0114479" id="Stroke-92" stroke="#24272D" stroke-width="2.1"></path>
                <path d="M338.926832,73.5952863 C338.820459,75.4955157 337.19408,76.9492086 335.294771,76.8435236 C333.394761,76.7371388 331.940537,75.1105705 332.04691,73.2103412 C332.153282,71.3101119 333.779662,69.8564189 335.678971,69.9628038 C337.57898,70.0691886 339.033205,71.6957569 338.926832,73.5952863" id="Fill-94" fill="#24272D"></path>
                <path d="M355.282726,74.6078321 C355.176353,76.5080614 353.549973,77.9617543 351.650664,77.8560694 C349.750655,77.7496845 348.296431,76.1231163 348.402803,74.2228869 C348.509176,72.3226576 350.135556,70.8689647 352.034865,70.9753496 C353.934874,71.0817344 355.389098,72.7083027 355.282726,74.6078321" id="Fill-96" fill="#24272D"></path>
                <path d="M314.517559,487.54117 L279.235476,484.506402 L331.959152,357.056657 C331.959152,357.056657 233.876697,279.418817 208.575435,261.439778 C184.48206,244.318817 184.526149,224.520737 184.526149,224.520737 L281.048008,238.406759 C281.048008,238.406759 380.49791,318.364069 386.867664,346.934699 C392.350048,371.523596 314.517559,487.54117 314.517559,487.54117" id="Fill-98" fill="#393940"></path>
                <path d="M268.484994,162.826695 C268.484994,162.826695 292.450301,171.975092 347.288831,191.206953 C390.511763,206.365393 431.997743,220.170927 431.997743,220.170927 C438.226133,222.355315 446.463005,220.434089 448.88298,214.779595 L458.631461,216.506249 L462.23273,183.410063 L452.707491,182.336416 C452.715189,176.998976 450.603835,174.710302 444.402037,172.785577 C444.402037,172.785577 326.830318,125.831365 290.448119,117.498352 C267.181231,112.169311 268.49969,116.212635 268.49969,116.212635 L268.484994,162.826695 Z" id="Fill-102" fill="#49A2FF"></path>
                <polygon id="Fill-104" fill="#E0B99F" points="317.6897 102.558071 297.439032 95.1027326 312.178624 110.994669"></polygon>
                <path d="M151.996175,273.118104 C149.833733,303.269809 146.964475,343.227117 144.46612,377.984166 L49.1577477,485.383867 L15.6434078,458.921337 L151.996175,273.118104 Z" id="Fill-106" fill="#393940"></path>
                <polygon id="Fill-108" fill="#285FD7" points="258.702572 158.642341 340.809556 188.964822 250.950675 172.495468"></polygon>
            </g>
            <path d="M2.94325908,258.741545 C2.94325908,256.981996 9.9675528,246.116044 11.6989054,240.276776 C12.2909524,238.27926 14.0523973,238 14.0523973,238 C14.0523973,238 13.9278295,247.466152 14.5863593,250.920859 C15.4100465,255.239244 19.5753702,255.452014 19.5753702,255.452014 L49.7186812,256.837117 C50.8761821,256.888209 51.8104407,257.718991 51.8636269,258.741545 L51.925211,259.940475 C51.9692996,260.81605 51.2477861,261.562144 50.2645401,261.65663 L21.4249922,262.645589 C20.9883051,262.660987 20.6383955,263.015836 20.6327969,263.453274 C20.6257987,263.890012 20.9610121,264.25536 21.3962996,264.284756 L54.8049669,266.579729 C56.0233521,266.637821 56.9898024,267.538592 56.9898024,268.615739 L56.9891025,270.203813 C56.9891025,271.298457 55.9918602,272.170532 54.7538801,272.160734 L22.5971893,270.840022 C22.1563033,270.821825 21.7846993,271.166175 21.7693033,271.607113 C21.7539072,272.034052 22.0779235,272.3966 22.5041134,272.429496 L50.7971025,274.609685 C51.8475311,274.695073 52.6376269,275.515356 52.5627463,276.441324 L52.4220826,278.158879 C52.3507011,279.041454 51.5165166,279.709858 50.5136758,279.688162 L19.8559976,279.059651 C19.3472291,279.049153 18.9287373,279.459994 18.9301369,279.969521 C18.9315365,280.485348 19.336032,280.909488 19.8510989,280.936084 L42.993419,282.126614 C43.999759,282.192405 44.7345691,282.993791 44.6946794,283.882664 L44.6442924,284.998305 C44.607202,285.80879 43.7289289,286.800548 42.8142653,286.864939 L14.5065799,287.890993 L-2.38031816e-13,282.126614 L2.94325908,258.741545 Z" id="Fill-100" fill="#F9D0B5" transform="translate(28.494901, 262.945497) scale(-1, 1) translate(-28.494901, -262.945497) "></path>
        </g>
    </g>
</svg>